HIERARCHY
ROOT Pelvis
{
	OFFSET 0.000000 0.000000 0.000000
	CHANNELS 6 Xposition Yposition Zposition Xrotation Yrotation Zrotation
	JOINT LeftUpLeg_virtual
	{
		OFFSET 0.000000 0.000000 0.000000
		CHANNELS 3 Xrotation Yrotation Zrotation
		JOINT LeftUpLeg
		{
			OFFSET 18.735201 -5.666702 -4.541200
			CHANNELS 3 Xrotation Yrotation Zrotation
			JOINT LeftLeg
			{
				OFFSET -0.021200 -31.938179 0.493100
				CHANNELS 3 Xrotation Yrotation Zrotation
				JOINT LeftFoot
				{
					OFFSET 0.021200 -31.938179 -4.336299
					CHANNELS 3 Xrotation Yrotation Zrotation
					JOINT LeftToeBase
					{
						OFFSET 0.943001 -26.722000 15.023500
						CHANNELS 3 Xrotation Yrotation Zrotation
						End Site
						{
							OFFSET 0 0 0
						}
					}
				}
			}
		}
	}
	JOINT RightUpLeg_virtual
	{
		OFFSET 0.000000 0.000000 0.000000
		CHANNELS 3 Xrotation Yrotation Zrotation
		JOINT RightUpLeg
		{
			OFFSET -18.735201 -5.666702 -4.541200
			CHANNELS 3 Xrotation Yrotation Zrotation
			JOINT RightLeg
			{
				OFFSET 0.018946 -31.938133 0.493100
				CHANNELS 3 Xrotation Yrotation Zrotation
				JOINT RightFoot
				{
					OFFSET -0.018946 -31.938126 -4.336299
					CHANNELS 3 Xrotation Yrotation Zrotation
					JOINT RightToeBase
					{
						OFFSET -0.943001 -26.722004 15.023500
						CHANNELS 3 Xrotation Yrotation Zrotation
						End Site
						{
							OFFSET 0 0 0
						}
					}
				}
			}
		}
	}
	JOINT Hips_virtual
	{
		OFFSET 0.000000 0.000000 0.000000
		CHANNELS 3 Xrotation Yrotation Zrotation
		JOINT Hips
		{
			OFFSET -0.000000 -0.000000 -0.000000
			CHANNELS 3 Xrotation Yrotation Zrotation
			JOINT Spine
			{
				OFFSET 0.000000 10.199997 -0.299500
				CHANNELS 3 Xrotation Yrotation Zrotation
				JOINT Spine1
				{
					OFFSET 0.000000 11.900002 -1.516600
					CHANNELS 3 Xrotation Yrotation Zrotation
					JOINT Spine2
					{
						OFFSET 0.000000 13.600006 -2.842500
						CHANNELS 3 Xrotation Yrotation Zrotation
						JOINT Neck_virtual
						{
							OFFSET 0.000000 0.000000 0.000000
							CHANNELS 3 Xrotation Yrotation Zrotation
							JOINT Neck
							{
								OFFSET 0.000000 9.624100 -2.890100
								CHANNELS 3 Xrotation Yrotation Zrotation
								JOINT Head
								{
									OFFSET 0.000000 14.068802 -1.351900
									CHANNELS 3 Xrotation Yrotation Zrotation
									End Site
									{
										OFFSET 0 0 0
									}
								}
							}
						}
						JOINT LeftShoulder_virtual
						{
							OFFSET 0.000000 0.000000 0.000000
							CHANNELS 3 Xrotation Yrotation Zrotation
							JOINT LeftShoulder
							{
								OFFSET 15.263000 10.923401 -0.547700
								CHANNELS 3 Xrotation Yrotation Zrotation
								JOINT LeftArm
								{
									OFFSET 25.438599 -2.830597 -13.032500
									CHANNELS 3 Xrotation Yrotation Zrotation
									JOINT LeftForeArm
									{
										OFFSET 29.960503 0.000000 0.000000
										CHANNELS 3 Xrotation Yrotation Zrotation
										JOINT LeftHand
										{
											OFFSET 27.849251 0.000000 0.000000
											CHANNELS 3 Xrotation Yrotation Zrotation
											End Site
											{
												OFFSET 0 0 0
											}
										}
									}
								}
							}
						}
						JOINT RightShoulder_virtual
						{
							OFFSET 0.000000 0.000000 0.000000
							CHANNELS 3 Xrotation Yrotation Zrotation
							JOINT RightShoulder
							{
								OFFSET -15.263000 10.923401 -0.547700
								CHANNELS 3 Xrotation Yrotation Zrotation
								JOINT RightArm
								{
									OFFSET -25.438599 -2.830597 -13.032500
									CHANNELS 3 Xrotation Yrotation Zrotation
									JOINT RightForeArm
									{
										OFFSET -29.960503 0.000000 0.000000
										CHANNELS 3 Xrotation Yrotation Zrotation
										JOINT RightHand
										{
											OFFSET -27.849251 0.000000 0.000000
											CHANNELS 3 Xrotation Yrotation Zrotation
											End Site
											{
												OFFSET 0 0 0
											}
										}
									}
								}
							}
						}
					}
				}
			}
		}
	}
}
MOTION
Frames: 5
Frame Time: 0.03333333
1.136919 79.989685 9.218124 0.000000 0.000000 0.000000 175.353837 -58.712033 179.980812 2.576758 25.673062 2.005768 30.129050 -1.493971 9.538652 -35.081928 22.489938 -25.444162 0.000000 0.000000 0.000000 175.703502 -59.252615 179.977315 -47.595569 29.820920 -19.859769 39.098332 -0.725832 8.373038 -16.421655 5.530314 18.016738 0.000000 0.000000 0.000000 174.633662 -60.542107 179.367516 -0.707513 0.151917 0.025447 25.829136 -7.657299 12.343910 20.703270 -5.017625 2.603023 0.000000 0.000000 0.000000 24.606009 -2.034707 -1.247552 -1.681947 -1.983730 0.941498 0.000000 0.000000 0.000000 24.517497 -2.154206 -1.354880 -4.114375 -15.817075 15.370986 17.963459 27.049511 -72.503838 -69.449193 -68.759630 -68.972466 0.000000 0.000000 0.000000 22.388902 -0.616289 -0.678577 5.421703 15.826771 20.507231 -34.291487 60.800998 7.662799 166.733838 52.278131 -145.731143 0.000000 0.000000 0.000000 
1.150891 80.207001 8.982368 0.000000 0.000000 0.000000 177.251482 -62.980655 -177.458983 0.960973 26.939859 3.731578 32.973268 -1.772051 8.331138 -34.779576 21.572217 -25.311853 0.000000 0.000000 0.000000 177.687303 -63.304734 -177.406992 -45.942885 29.453644 -22.131749 44.745389 -1.121263 7.357435 -21.971791 3.427866 16.730576 0.000000 0.000000 0.000000 176.816577 -65.296404 -177.658958 -0.704319 0.139220 0.055236 24.999384 -9.074184 11.788200 20.969560 -5.497901 2.895579 0.000000 0.000000 0.000000 24.148224 -2.548157 -1.014673 -1.494246 -1.502440 0.342283 0.000000 0.000000 0.000000 24.299547 -2.587736 -0.865147 -3.993583 -13.811219 15.606460 8.730422 33.829876 -71.477595 -82.089079 -71.780575 -79.480282 0.000000 0.000000 0.000000 22.703264 -1.115285 -0.666258 5.861537 16.981110 20.016409 -40.830239 54.091751 15.084468 159.953796 51.288478 -139.429487 0.000000 0.000000 0.000000 
1.116973 80.610115 8.576035 0.000000 0.000000 0.000000 179.998134 -69.350524 -174.162994 -2.038774 28.091849 6.216329 35.492637 -1.790091 6.800956 -33.751533 20.162744 -24.378615 0.000000 0.000000 0.000000 -179.253834 -69.567594 -173.713280 -44.272583 28.440131 -25.438406 51.346879 -1.120140 6.130854 -25.550302 2.146089 17.268819 0.000000 0.000000 0.000000 -179.637049 -71.727641 -173.506735 -0.731180 0.132197 0.063869 24.137629 -10.057197 10.943596 20.851063 -5.698318 3.334627 0.000000 0.000000 0.000000 23.296138 -2.801438 -0.420545 -1.310772 -1.103355 0.001136 0.000000 0.000000 0.000000 23.707149 -2.859435 -0.284671 -3.890984 -11.784145 15.320760 0.923157 36.081553 -70.728405 -103.139736 -73.951920 -98.892035 0.000000 0.000000 0.000000 22.610738 -1.459477 -0.367373 6.698661 18.165559 18.155592 -47.936293 48.627009 23.433636 151.531435 51.103424 -132.264701 0.000000 0.000000 0.000000 
1.086372 81.164841 8.325100 0.000000 0.000000 0.000000 -174.609784 -77.122671 -168.438721 -6.135982 28.683584 9.147040 37.776929 -1.640394 5.176203 -32.369086 18.440232 -22.643848 0.000000 0.000000 0.000000 -172.945608 -77.199975 -166.950218 -42.575796 27.092456 -28.785621 58.190719 -0.801433 4.560113 -26.586131 1.748459 19.170562 0.000000 0.000000 0.000000 -171.742429 -79.201849 -165.286835 -0.752982 0.142214 0.056794 23.217425 -10.463286 9.791235 20.355808 -5.580659 3.612727 0.000000 0.000000 0.000000 22.069434 -2.808219 0.193028 -1.161798 -0.849858 -0.024993 0.000000 0.000000 0.000000 22.722590 -2.932798 0.192076 -3.707264 -10.315144 14.666086 -3.145402 34.438213 -71.320050 -129.047791 -73.332524 -123.956472 0.000000 0.000000 0.000000 22.066659 -1.566976 -0.068857 7.729138 19.227840 15.430938 -54.921838 43.468120 32.354288 142.470001 50.716938 -125.335078 0.000000 0.000000 0.000000 
0.940700 81.730606 8.164116 0.000000 0.000000 0.000000 -153.314128 -85.142918 -147.044493 -10.843385 28.338180 12.156907 39.938141 -1.614222 3.603580 -30.821017 16.361182 -20.772434 0.000000 0.000000 0.000000 -147.154554 -85.123678 -140.861450 -40.536261 25.298157 -31.514233 64.180945 -0.742843 2.755643 -26.711649 1.759103 21.327568 0.000000 0.000000 0.000000 -133.037701 -86.249812 -126.533571 -0.771757 0.145820 0.032862 22.343183 -10.157888 8.339544 19.446611 -5.158252 3.633137 0.000000 0.000000 0.000000 20.479171 -2.521832 0.599283 -1.089966 -0.774418 0.251595 0.000000 0.000000 0.000000 21.323412 -2.706473 0.454821 -3.399976 -9.461492 13.735965 -3.303802 29.576553 -72.991848 -148.657346 -70.087966 -143.671609 0.000000 0.000000 0.000000 21.032149 -1.341156 0.076848 8.772831 20.118350 12.456018 -60.540235 38.036364 40.320195 134.410951 49.818423 -120.133971 0.000000 0.000000 0.000000 
